<?xml version="1.0" standalone="no"?>
<!DOCTYPE svg PUBLIC "-//W3C//DTD SVG 20010904//EN"
 "http://www.w3.org/TR/2001/REC-SVG-20010904/DTD/svg10.dtd">
<svg version="1.0" xmlns="http://www.w3.org/2000/svg"
 width="260.000000pt" height="260.000000pt" viewBox="0 0 260.000000 260.000000"
 preserveAspectRatio="xMidYMid meet">
<metadata>
Created by potrace 1.14, written by Peter Selinger 2001-2017
</metadata>
<g transform="translate(0.000000,260.000000) scale(0.100000,-0.100000)"
fill="#000000" stroke="none">
<path d="M1120 2263 c-14 -2 -32 -7 -40 -10 -8 -3 -23 -8 -33 -10 -20 -3 -102
-36 -157 -62 -85 -40 -233 -140 -319 -215 -94 -82 -255 -255 -290 -311 -13
-20 -11 -27 19 -71 18 -27 34 -50 35 -51 0 -1 28 5 60 13 66 18 75 19 155 29
30 3 60 8 66 9 6 2 30 58 53 125 52 148 74 183 123 195 46 11 85 -4 136 -53
42 -40 97 -111 86 -111 -4 0 0 -8 8 -17 33 -38 138 -287 138 -328 0 -38 -24
-4 -99 140 -120 232 -197 335 -250 335 -16 0 -61 -52 -77 -90 -8 -19 -29 -75
-45 -125 -17 -49 -34 -94 -39 -98 -4 -5 -25 -10 -46 -12 -22 -2 -52 -7 -69
-10 -61 -11 -101 -18 -120 -21 -26 -4 -62 -12 -83 -18 -13 -4 -31 16 -69 77
-29 45 -61 92 -71 105 -24 31 -75 32 -106 2 -39 -36 -50 -105 -48 -310 1 -102
1 -197 1 -212 1 -16 0 -34 0 -40 -2 -20 11 -161 16 -178 2 -8 7 -35 10 -60 4
-24 9 -48 11 -52 3 -4 7 -17 9 -29 7 -33 54 -130 80 -165 26 -34 25 -37 -27
-64 -16 -7 -28 -19 -28 -27 0 -17 3 -17 59 11 36 19 51 22 60 13 15 -15 14
-27 -2 -27 -15 0 -67 -47 -67 -60 0 -16 25 -11 46 8 43 40 55 42 98 11 40 -30
113 -56 183 -65 69 -9 507 -12 573 -4 36 5 92 11 125 15 33 4 67 8 75 9 141
24 170 30 170 37 0 4 -10 11 -22 15 -13 4 -47 17 -75 30 -39 17 -51 27 -47 38
8 21 19 20 68 -3 100 -46 335 -118 444 -135 15 -3 47 -8 72 -12 49 -8 140 -8
179 0 42 9 63 37 57 74 -3 19 -12 44 -20 57 -16 25 -130 115 -145 115 -5 0
-11 4 -13 9 -4 12 -135 94 -207 131 -34 17 -61 37 -61 45 0 18 27 19 60 2 61
-32 119 -67 174 -103 32 -21 66 -43 75 -49 9 -5 18 -12 21 -15 3 -3 16 -14 30
-25 l25 -20 -15 20 c-8 11 -31 41 -52 66 -21 26 -38 49 -38 52 0 3 -29 52 -65
108 -36 57 -64 107 -62 113 8 23 26 15 48 -21 195 -320 341 -466 478 -478 57
-4 90 14 118 68 19 35 24 175 9 257 -4 25 -9 56 -11 70 -1 14 -13 63 -25 110
-12 47 -23 90 -24 95 -5 22 -59 191 -65 200 -3 6 -6 15 -7 20 -17 85 -137 338
-215 455 -61 91 -171 211 -244 265 -22 16 -42 32 -45 35 -13 13 -92 61 -146
88 -71 36 -166 68 -254 86 -59 13 -250 18 -310 9z m-526 -1085 c-3 -13 -5 -47
-6 -75 0 -29 -4 -53 -9 -53 -10 0 -12 16 -11 70 2 47 10 80 22 80 5 0 7 -10 4
-22z m61 0 c-4 -13 -9 -41 -10 -63 -2 -22 -4 -44 -4 -48 -1 -5 -6 -5 -12 -2
-14 9 -9 72 8 108 16 33 28 36 18 5z m-341 -70 c14 -29 26 -58 26 -65 0 -24
-20 -13 -27 15 -3 15 -15 41 -25 57 -20 33 -22 45 -9 45 5 0 21 -23 35 -52z
m-46 -24 c25 -50 26 -54 14 -54 -5 0 -17 18 -27 40 -10 22 -22 40 -27 40 -4 0
-8 7 -8 15 0 27 26 5 48 -41z m688 -79 c36 -88 -6 -162 -102 -182 -98 -19
-183 24 -208 104 -6 19 -2 23 31 32 47 13 66 14 59 2 -8 -12 13 -28 44 -35 34
-8 63 16 63 53 0 29 5 31 95 60 2 1 10 -15 18 -34z m-808 -70 c12 -3 22 -14
22 -24 0 -44 57 -55 87 -18 15 19 25 23 57 19 37 -4 38 -6 32 -36 -8 -39 -36
-78 -61 -84 -95 -22 -186 37 -190 126 -2 25 1 31 14 28 9 -2 26 -7 39 -11z
m479 -142 c8 -21 -15 -59 -44 -72 -25 -11 -25 -12 -8 -31 10 -11 21 -17 26
-15 25 16 179 -76 179 -106 0 -21 -29 -19 -54 4 -55 51 -147 79 -179 55 -10
-7 -19 -30 -21 -53 -2 -22 -5 -43 -5 -47 -1 -5 -8 -8 -16 -8 -16 0 -17 3 -18
35 -1 52 5 73 24 93 30 33 21 53 -33 69 -47 13 -71 44 -50 65 31 31 188 40
199 11z m418 -139 c17 -1 36 -3 43 -3 6 -1 12 -6 12 -12 0 -9 -63 -7 -155 6
-11 1 -32 3 -47 4 -16 0 -28 6 -28 12 0 10 23 9 175 -7z m-75 -64 c25 -7 56
-14 70 -17 35 -6 50 -23 20 -23 -40 1 -194 46 -197 57 -4 11 17 8 107 -17z"/>
<path d="M2467 1300 c-15 -5 -40 -6 -54 -4 -21 4 -25 2 -20 -13 25 -82 69
-230 71 -241 1 -7 5 -12 9 -12 4 0 11 0 16 0 17 0 74 64 89 100 21 52 22 100
1 143 -17 32 -24 37 -52 36 -17 0 -45 -4 -60 -9z"/>
</g>
</svg>
